<svg width="438" height="44" viewBox="0 0 438 44" fill="none" xmlns="http://www.w3.org/2000/svg">
<rect width="438" height="44" rx="22" fill="#665F55"/>
<path d="M208.077 20.2898H205.952C205.891 19.9413 205.779 19.6326 205.616 19.3636C205.454 19.0909 205.251 18.8598 205.009 18.6705C204.766 18.4811 204.49 18.339 204.179 18.2443C203.872 18.1458 203.541 18.0966 203.185 18.0966C202.552 18.0966 201.991 18.2557 201.503 18.5739C201.014 18.8883 200.632 19.3504 200.355 19.9602C200.079 20.5663 199.94 21.3068 199.94 22.1818C199.94 23.072 200.079 23.822 200.355 24.4318C200.635 25.0379 201.018 25.4962 201.503 25.8068C201.991 26.1136 202.55 26.267 203.179 26.267C203.527 26.267 203.853 26.2216 204.156 26.1307C204.463 26.036 204.738 25.8977 204.98 25.7159C205.226 25.5341 205.433 25.3106 205.599 25.0455C205.77 24.7803 205.887 24.4773 205.952 24.1364L208.077 24.1477C207.997 24.7008 207.825 25.2197 207.56 25.7045C207.298 26.1894 206.955 26.6174 206.531 26.9886C206.107 27.3561 205.611 27.6439 205.043 27.8523C204.474 28.0568 203.844 28.1591 203.151 28.1591C202.128 28.1591 201.215 27.9223 200.412 27.4489C199.609 26.9754 198.976 26.2917 198.514 25.3977C198.052 24.5038 197.821 23.4318 197.821 22.1818C197.821 20.928 198.054 19.8561 198.52 18.9659C198.986 18.072 199.62 17.3883 200.423 16.9148C201.226 16.4413 202.135 16.2045 203.151 16.2045C203.798 16.2045 204.401 16.2955 204.957 16.4773C205.514 16.6591 206.01 16.9261 206.446 17.2784C206.882 17.6269 207.24 18.0549 207.52 18.5625C207.804 19.0663 207.99 19.642 208.077 20.2898ZM211.973 16.3636V28H209.916V16.3636H211.973ZM217.895 28.1705C217.043 28.1705 216.304 27.983 215.679 27.608C215.054 27.233 214.569 26.7083 214.224 26.0341C213.884 25.3598 213.713 24.572 213.713 23.6705C213.713 22.7689 213.884 21.9792 214.224 21.3011C214.569 20.6231 215.054 20.0966 215.679 19.7216C216.304 19.3466 217.043 19.1591 217.895 19.1591C218.747 19.1591 219.486 19.3466 220.111 19.7216C220.736 20.0966 221.219 20.6231 221.56 21.3011C221.904 21.9792 222.077 22.7689 222.077 23.6705C222.077 24.572 221.904 25.3598 221.56 26.0341C221.219 26.7083 220.736 27.233 220.111 27.608C219.486 27.983 218.747 28.1705 217.895 28.1705ZM217.906 26.5227C218.368 26.5227 218.755 26.3958 219.065 26.142C219.376 25.8845 219.607 25.5398 219.759 25.108C219.914 24.6761 219.991 24.1951 219.991 23.6648C219.991 23.1307 219.914 22.6477 219.759 22.2159C219.607 21.7803 219.376 21.4337 219.065 21.1761C218.755 20.9186 218.368 20.7898 217.906 20.7898C217.433 20.7898 217.039 20.9186 216.724 21.1761C216.414 21.4337 216.181 21.7803 216.026 22.2159C215.874 22.6477 215.798 23.1307 215.798 23.6648C215.798 24.1951 215.874 24.6761 216.026 25.108C216.181 25.5398 216.414 25.8845 216.724 26.142C217.039 26.3958 217.433 26.5227 217.906 26.5227ZM230.72 21.5795L228.845 21.7841C228.792 21.5947 228.699 21.4167 228.567 21.25C228.438 21.0833 228.264 20.9489 228.044 20.8466C227.824 20.7443 227.555 20.6932 227.237 20.6932C226.809 20.6932 226.449 20.786 226.158 20.9716C225.87 21.1572 225.728 21.3977 225.732 21.6932C225.728 21.947 225.821 22.1534 226.01 22.3125C226.203 22.4716 226.521 22.6023 226.964 22.7045L228.453 23.0227C229.279 23.2008 229.893 23.483 230.294 23.8693C230.699 24.2557 230.904 24.7614 230.908 25.3864C230.904 25.9356 230.743 26.4205 230.425 26.8409C230.11 27.2576 229.673 27.5833 229.112 27.8182C228.552 28.053 227.908 28.1705 227.18 28.1705C226.112 28.1705 225.252 27.947 224.601 27.5C223.949 27.0492 223.561 26.4223 223.436 25.6193L225.442 25.4261C225.533 25.8201 225.726 26.1174 226.021 26.3182C226.317 26.5189 226.701 26.6193 227.175 26.6193C227.663 26.6193 228.055 26.5189 228.351 26.3182C228.65 26.1174 228.8 25.8693 228.8 25.5739C228.8 25.3239 228.703 25.1174 228.51 24.9545C228.321 24.7917 228.025 24.6667 227.624 24.5795L226.135 24.267C225.298 24.0928 224.679 23.7992 224.277 23.3864C223.875 22.9697 223.677 22.4432 223.68 21.8068C223.677 21.2689 223.822 20.803 224.118 20.4091C224.417 20.0114 224.832 19.7045 225.362 19.4886C225.896 19.2689 226.512 19.1591 227.209 19.1591C228.232 19.1591 229.036 19.3769 229.624 19.8125C230.214 20.2481 230.58 20.8371 230.72 21.5795ZM236.467 28.1705C235.592 28.1705 234.837 27.9886 234.2 27.625C233.568 27.2576 233.081 26.7386 232.74 26.0682C232.399 25.3939 232.229 24.6004 232.229 23.6875C232.229 22.7898 232.399 22.0019 232.74 21.3239C233.085 20.642 233.566 20.1117 234.183 19.733C234.801 19.3504 235.526 19.1591 236.359 19.1591C236.897 19.1591 237.405 19.2462 237.882 19.4205C238.363 19.5909 238.787 19.8561 239.155 20.2159C239.526 20.5758 239.818 21.0341 240.03 21.5909C240.242 22.1439 240.348 22.803 240.348 23.5682V24.1989H233.195V22.8125H238.376C238.373 22.4186 238.287 22.0682 238.121 21.7614C237.954 21.4508 237.721 21.2064 237.422 21.0284C237.126 20.8504 236.782 20.7614 236.388 20.7614C235.967 20.7614 235.598 20.8636 235.28 21.0682C234.962 21.2689 234.714 21.5341 234.536 21.8636C234.361 22.1894 234.272 22.5473 234.268 22.9375V24.1477C234.268 24.6553 234.361 25.0909 234.547 25.4545C234.732 25.8144 234.992 26.0909 235.325 26.2841C235.659 26.4735 236.049 26.5682 236.496 26.5682C236.795 26.5682 237.066 26.5265 237.308 26.4432C237.551 26.3561 237.761 26.2292 237.939 26.0625C238.117 25.8958 238.251 25.6894 238.342 25.4432L240.263 25.6591C240.142 26.1667 239.911 26.6098 239.57 26.9886C239.232 27.3636 238.801 27.6553 238.274 27.8636C237.748 28.0682 237.145 28.1705 236.467 28.1705Z" fill="#E1D4C9"/>
</svg>
