<svg width="200" height="64" viewBox="0 0 200 64" fill="none" xmlns="http://www.w3.org/2000/svg">
<rect width="200" height="64" rx="32" fill="#E1D4C9"/>
<path d="M79.4134 26.3636H81.9929L85.4474 34.7955H85.5838L89.0384 26.3636H91.6179V38H89.5952V30.0057H89.4872L86.2713 37.9659H84.7599L81.544 29.9886H81.4361V38H79.4134V26.3636ZM97.6861 38.1705C96.8111 38.1705 96.0554 37.9886 95.419 37.625C94.7865 37.2576 94.2997 36.7386 93.9588 36.0682C93.6179 35.3939 93.4474 34.6004 93.4474 33.6875C93.4474 32.7898 93.6179 32.0019 93.9588 31.3239C94.3035 30.642 94.7846 30.1117 95.402 29.733C96.0194 29.3504 96.7448 29.1591 97.5781 29.1591C98.116 29.1591 98.6236 29.2462 99.1009 29.4205C99.5819 29.5909 100.006 29.8561 100.374 30.2159C100.745 30.5758 101.036 31.0341 101.249 31.5909C101.461 32.1439 101.567 32.803 101.567 33.5682V34.1989H94.4134V32.8125H99.5952C99.5914 32.4186 99.5062 32.0682 99.3395 31.7614C99.1728 31.4508 98.9399 31.2064 98.6406 31.0284C98.3452 30.8504 98.0005 30.7614 97.6065 30.7614C97.1861 30.7614 96.8168 30.8636 96.4986 31.0682C96.1804 31.2689 95.9323 31.5341 95.7543 31.8636C95.58 32.1894 95.491 32.5473 95.4872 32.9375V34.1477C95.4872 34.6553 95.58 35.0909 95.7656 35.4545C95.9512 35.8144 96.2107 36.0909 96.544 36.2841C96.8774 36.4735 97.2675 36.5682 97.7145 36.5682C98.0137 36.5682 98.2846 36.5265 98.527 36.4432C98.7694 36.3561 98.9796 36.2292 99.1577 36.0625C99.3357 35.8958 99.4702 35.6894 99.5611 35.4432L101.482 35.6591C101.36 36.1667 101.129 36.6098 100.788 36.9886C100.451 37.3636 100.019 37.6553 99.4929 37.8636C98.9664 38.0682 98.3641 38.1705 97.6861 38.1705ZM105.364 32.8864V38H103.307V29.2727H105.273V30.7557H105.375C105.576 30.267 105.896 29.8788 106.335 29.5909C106.778 29.303 107.326 29.1591 107.977 29.1591C108.58 29.1591 109.104 29.2879 109.551 29.5455C110.002 29.803 110.35 30.1761 110.597 30.6648C110.847 31.1534 110.97 31.7462 110.966 32.4432V38H108.909V32.7614C108.909 32.178 108.758 31.7216 108.455 31.392C108.155 31.0625 107.741 30.8977 107.21 30.8977C106.85 30.8977 106.53 30.9773 106.25 31.1364C105.973 31.2917 105.756 31.517 105.597 31.8125C105.441 32.108 105.364 32.4659 105.364 32.8864ZM118.619 34.3295V29.2727H120.676V38H118.682V36.4489H118.591C118.394 36.9375 118.07 37.3371 117.619 37.6477C117.172 37.9583 116.621 38.1136 115.966 38.1136C115.394 38.1136 114.888 37.9867 114.449 37.733C114.013 37.4754 113.672 37.1023 113.426 36.6136C113.18 36.1212 113.057 35.5265 113.057 34.8295V29.2727H115.114V34.5114C115.114 35.0644 115.265 35.5038 115.568 35.8295C115.871 36.1553 116.269 36.3182 116.761 36.3182C117.064 36.3182 117.358 36.2443 117.642 36.0966C117.926 35.9489 118.159 35.7292 118.341 35.4375C118.527 35.142 118.619 34.7727 118.619 34.3295Z" fill="#403F3D"/>
</svg>
